<svg width="120" height="120" viewBox="0 0 120 120" fill="none" xmlns="http://www.w3.org/2000/svg">
<path fill-rule="evenodd" clip-rule="evenodd" d="M60 38.08L44.4634 53.6166L44.4637 53.616L35.424 44.576L60 20L84.584 44.5834L75.544 53.6234L60 38.08ZM29.0403 50.9584L20 60L29.0397 69.0384L38.08 59.9981L29.0403 50.9584ZM44.4634 66.3843L60 81.92L75.5437 66.377L84.5885 75.4122L84.584 75.417L60 100L35.424 75.424L35.4112 75.4112L44.4634 66.3843ZM90.9603 50.9635L81.92 60.0038L90.96 69.0435L100 60.0032L90.9603 50.9635Z" fill="black"/>
<path d="M69.1686 59.9952H69.1725L60 50.8221L53.2202 57.6L52.4413 58.3792L50.8349 59.9859L50.8221 59.9984L50.8349 60.0115L60 69.1779L69.1731 60.0048L69.1776 59.9997L69.1693 59.9952" fill="black"/>
</svg>
