<svg width="120" height="120" viewBox="0 0 120 120" fill="none" xmlns="http://www.w3.org/2000/svg">
<path d="M41.9315 59.6948C41.7608 62.66 44.0434 65.1986 47.0086 65.3692C47.1152 65.3692 47.2219 65.3692 47.3286 65.3692C50.3151 65.3692 52.7257 62.9587 52.7043 59.9722C52.7043 56.9856 50.2938 54.5751 47.3072 54.5964C44.4487 54.5964 42.0808 56.8363 41.9315 59.6948Z" fill="black"/>
<path d="M21.8364 58.3083C20.8764 58.2443 20.0445 58.9909 20.0018 59.9509C19.9591 60.9108 20.6844 61.7428 21.6444 61.7854C22.6043 61.8494 23.415 61.1028 23.479 60.1429C23.543 59.1829 22.7963 58.3723 21.8364 58.3083Z" fill="black"/>
<path d="M41.5902 28.4216C42.4435 27.9949 42.7848 26.9283 42.3581 26.075C41.9315 25.2217 40.8649 24.8804 40.0116 25.307C39.1583 25.7337 38.817 26.779 39.2436 27.6323C39.6702 28.5069 40.7155 28.8695 41.5902 28.4216C41.5902 28.4216 41.5688 28.4216 41.5902 28.4216Z" fill="black"/>
<path d="M47.0512 37.9571C48.3738 37.2958 48.9072 35.6746 48.2459 34.352C47.5846 33.0294 45.9633 32.4961 44.6407 33.1574C43.3181 33.8187 42.7848 35.4399 43.4461 36.7625C44.1074 38.0851 45.7286 38.6184 47.0512 37.9571Z" fill="black"/>
<path d="M28.6627 44.5062C29.6867 45.1675 31.052 44.8902 31.7346 43.8662C32.3959 42.8423 32.1186 41.477 31.0946 40.7944C30.0707 40.1331 28.7054 40.4104 28.0228 41.4343C27.3401 42.4583 27.6388 43.8449 28.6627 44.5062Z" fill="black"/>
<path d="M31.9266 57.3483C30.4333 57.2629 29.1747 58.3936 29.0894 59.8868C29.0041 61.3801 30.1347 62.6387 31.6279 62.724C33.1212 62.8094 34.3798 61.6788 34.4651 60.1855C34.5505 58.7136 33.4199 57.4336 31.9266 57.3483Z" fill="black"/>
<path d="M28.9614 75.4168C27.8734 75.9714 27.4255 77.294 27.9801 78.4033C28.5347 79.4913 29.8574 79.9392 30.9666 79.3846C32.0546 78.83 32.5026 77.5074 31.9479 76.3981C31.3933 75.3101 30.0493 74.8621 28.9614 75.4168Z" fill="black"/>
<path d="M39.4143 51.7805C40.8862 52.7405 42.8488 52.3352 43.7874 50.8632C44.7473 49.3913 44.342 47.4287 42.8701 46.4901C41.3982 45.5302 39.4356 45.9355 38.497 47.4074C37.537 48.858 37.9423 50.8206 39.4143 51.7805Z" fill="black"/>
<path d="M72.5861 37.7438C73.8234 38.5544 75.5086 38.2131 76.3193 36.9758C77.1299 35.7386 76.7886 34.0533 75.5513 33.2427C74.314 32.432 72.6288 32.7734 71.8181 34.0106C70.9862 35.2692 71.3275 36.9332 72.5861 37.7438Z" fill="black"/>
<path d="M78.0899 28.2509C78.9005 28.7842 79.9671 28.5496 80.5004 27.7389C81.0337 26.9283 80.7991 25.8617 79.9884 25.3284C79.1778 24.7951 78.1112 25.0297 77.5779 25.819C77.0659 26.6296 77.3006 27.7176 78.0899 28.2509Z" fill="black"/>
<path d="M72.9914 54.5537C70.0262 54.3831 67.4663 56.6656 67.317 59.6308C67.1464 62.596 69.4289 65.1559 72.3941 65.3052C72.5008 65.3052 72.6074 65.3052 72.6928 65.3052C75.658 65.3052 78.0685 62.8947 78.0685 59.9081C78.0899 57.0709 75.85 54.703 72.9914 54.5537Z" fill="black"/>
<path d="M48.8218 51.3966C49.7391 53.2098 51.595 54.3618 53.643 54.3618C56.6082 54.3618 59.0187 51.9512 59.0187 48.9647C59.0187 48.1327 58.8267 47.3008 58.4427 46.5328C57.0988 43.8662 53.8563 42.7996 51.2111 44.1436C48.5445 45.5088 47.4779 48.7514 48.8218 51.3966Z" fill="black"/>
<path d="M91.0386 44.5062C92.1266 43.9516 92.5532 42.6076 91.9986 41.5197C91.4439 40.4317 90.1 40.0051 89.0121 40.5597C87.9241 41.1144 87.4975 42.437 88.0308 43.5249C88.6067 44.6129 89.9293 45.0609 91.0386 44.5062Z" fill="black"/>
<path d="M77.3859 46.2128C75.8286 47.0021 75.1887 48.9006 75.978 50.4579C76.7672 52.0152 78.6658 52.6551 80.2231 51.8658C81.7804 51.0765 82.4203 49.178 81.631 47.6207C80.8417 46.0634 78.9432 45.4448 77.3859 46.2128Z" fill="black"/>
<path d="M59.7867 27.4403C61.0026 27.5043 62.0479 26.5657 62.1332 25.3497C62.2186 24.1338 61.2586 23.0885 60.0427 23.0032C58.8267 22.9392 57.7814 23.8564 57.6961 25.0724C57.6321 26.3097 58.5707 27.355 59.7867 27.4403Z" fill="black"/>
<path d="M59.7653 41.3703C61.5146 41.477 63.0079 40.133 63.0932 38.3838C63.1999 36.6345 61.8559 35.1413 60.1067 35.0559C58.3574 34.9493 56.8641 36.2932 56.7788 38.0425C56.6935 39.7917 58.0161 41.285 59.7653 41.3703Z" fill="black"/>
<path d="M42.6141 73.7102C44.1714 72.9209 44.8114 71.0223 44.0221 69.4651C43.2328 67.9078 41.3342 67.2678 39.7769 68.0571C38.2196 68.8464 37.5797 70.745 38.369 72.3023C39.1583 73.8596 41.0569 74.4995 42.6141 73.7102Z" fill="black"/>
<path d="M61.8132 45.9995C60.192 48.4953 60.8746 51.8232 63.3705 53.4445C65.8664 55.0657 69.1942 54.3831 70.8155 51.8872C72.4368 49.3913 71.7541 46.0635 69.2582 44.4422C68.3836 43.8662 67.3597 43.5676 66.3144 43.5676C64.5011 43.5676 62.8159 44.4849 61.8132 45.9995Z" fill="black"/>
<path d="M71.1782 68.5264C69.8342 65.8599 66.5917 64.7933 63.9465 66.1372C61.2799 67.4812 60.2133 70.7237 61.5573 73.3689C62.9012 76.0354 66.1437 77.1021 68.7889 75.7581C71.4342 74.4355 72.5221 71.2357 71.1995 68.5691C71.1995 68.5478 71.1995 68.5478 71.1782 68.5264Z" fill="black"/>
<path d="M80.5858 68.1425C79.1138 67.1825 77.1512 67.5878 76.2126 69.0597C75.2527 70.5317 75.658 72.4943 77.1299 73.4329C78.6018 74.3928 80.5644 73.9875 81.503 72.5156C82.463 71.065 82.0577 69.1024 80.5858 68.1425Z" fill="black"/>
<path d="M90.9106 60.0575C90.996 58.5642 89.8653 57.3056 88.3721 57.2203C86.8788 57.135 85.6202 58.2656 85.5349 59.7588C85.4495 61.2521 86.5801 62.5107 88.0734 62.596C89.5454 62.6814 90.8253 61.5294 90.9106 60.0575Z" fill="black"/>
<path d="M98.3556 58.1376C97.3956 58.0736 96.5637 58.8202 96.521 59.7801C96.4784 60.7401 97.2037 61.5721 98.1636 61.6147C99.1236 61.6787 99.9342 60.9321 99.9982 59.9721C100.041 59.0122 99.3156 58.2016 98.3556 58.1376Z" fill="black"/>
<path d="M91.3373 75.4168C90.3133 74.7555 88.948 75.0328 88.2654 76.0568C87.6041 77.0807 87.8814 78.446 88.9054 79.1286C89.9293 79.7899 91.2946 79.5126 91.9772 78.4887C92.6599 77.4647 92.3612 76.0781 91.3373 75.4168Z" fill="black"/>
<path d="M41.8888 91.6721C41.0782 91.1387 40.0116 91.3734 39.4783 92.1627C38.9449 92.9733 39.1796 94.0399 39.9689 94.5733C40.7795 95.1066 41.8461 94.8719 42.3795 94.0826C42.9341 93.2933 42.6994 92.2054 41.8888 91.6721Z" fill="black"/>
<path d="M78.4098 91.5014C77.5565 91.9281 77.2152 92.9947 77.6419 93.848C78.0685 94.7013 79.1351 95.0426 79.9884 94.6159C80.8417 94.1893 81.183 93.144 80.7564 92.2907C80.3297 91.4161 79.2845 91.0534 78.4098 91.5014C78.4312 91.5014 78.4098 91.5014 78.4098 91.5014Z" fill="black"/>
<path d="M58.1867 73.9235C59.808 71.4276 59.1254 68.0998 56.6295 66.4572C54.1336 64.8359 50.8057 65.5186 49.1631 68.0145C47.5205 70.5103 48.2245 73.8382 50.7204 75.4808C51.595 76.0568 52.619 76.3554 53.6643 76.3554C55.4989 76.3768 57.1841 75.4595 58.1867 73.9235Z" fill="black"/>
<path d="M47.4139 82.1792C46.1766 81.3686 44.4914 81.7099 43.6807 82.9472C42.8701 84.1844 43.2114 85.8697 44.4487 86.6803C45.686 87.491 47.3712 87.1496 48.1819 85.9124C49.0138 84.6751 48.6725 82.9898 47.4139 82.1792Z" fill="black"/>
<path d="M59.9787 92.4827C58.7627 92.4187 57.7174 93.3573 57.6321 94.5733C57.5468 95.7892 58.5067 96.8345 59.7227 96.9198C60.9386 96.9838 61.9839 96.0665 62.0692 94.8506C62.1332 93.6133 61.1946 92.568 59.9787 92.4827Z" fill="black"/>
<path d="M60 78.5527C58.2507 78.446 56.7575 79.79 56.6721 81.5392C56.5655 83.2885 57.9094 84.7817 59.6587 84.8671C61.4079 84.9524 62.9012 83.6298 62.9865 81.8805C63.0932 80.1526 61.7493 78.638 60 78.5527Z" fill="black"/>
<path d="M72.9488 81.9659C71.6262 82.6485 71.0928 84.2698 71.7755 85.5924C72.4581 86.915 74.0794 87.4483 75.402 86.7656C76.7246 86.1043 77.2579 84.4831 76.5966 83.1605C75.914 81.8379 74.2927 81.2832 72.9488 81.9659Z" fill="black"/>
</svg>
