<svg width="120" height="120" viewBox="0 0 120 120" fill="none" xmlns="http://www.w3.org/2000/svg">
<path fill-rule="evenodd" clip-rule="evenodd" d="M67.5924 66.8022C67.1681 66.834 64.9762 66.9648 60.0866 66.9648C56.1976 66.9648 53.4364 66.8482 52.4677 66.8022C37.4385 66.1411 26.2205 63.5248 26.2205 60.3924C26.2205 57.26 37.4385 54.6473 52.4677 53.9756V64.1966C53.4506 64.2673 56.2648 64.4334 60.1538 64.4334C64.8206 64.4334 67.1575 64.239 67.5782 64.2001V53.9826C82.5756 54.6508 93.7689 57.2671 93.7689 60.3924C93.7689 63.5178 82.5792 66.134 67.5782 66.7987L67.5924 66.8022ZM67.5924 52.9255V43.7793H88.5223V29.832H31.5378V43.7793H52.4642V52.922C35.4551 53.7033 22.6639 57.0726 22.6639 61.1101C22.6639 65.1476 35.4551 68.5134 52.4642 69.2982V98.6071H67.5888V69.2876C84.559 68.5063 97.3291 65.1405 97.3291 61.1066C97.3291 57.0726 84.5696 53.7069 67.5888 52.922L67.5924 52.9255Z" fill="black"/>
</svg>
